<?xml version="1.0" encoding="UTF-8" standalone="no" ?>
<!DOCTYPE svg PUBLIC "-//W3C//DTD SVG 1.1//EN" "http://www.w3.org/Graphics/SVG/1.1/DTD/svg11.dtd">
<svg xmlns="http://www.w3.org/2000/svg" xmlns:xlink="http://www.w3.org/1999/xlink" version="1.1" width="640" height="640" viewBox="0 0 640 640" xml:space="preserve">
<desc>Created with Fabric.js 4.6.0</desc>
<defs>
</defs>
<g transform="matrix(0.05 0 0 -0.05 320 320)" id="oqsTzfodtpTDCagSVHGR2"  >
<path style="stroke: none; stroke-width: 1; stroke-dasharray: none; stroke-linecap: butt; stroke-dashoffset: 0; stroke-linejoin: miter; stroke-miterlimit: 4; fill: rgb(55,60,60); fill-rule: nonzero; opacity: 1;" vector-effect="non-scaling-stroke"  transform=" translate(-6400.75, -4570.99)" d="M 1245 9128 C 1218 9123 1157 9112 1110 9104 C 586 9009 148 8578 41 8054 C -4 7829 -4 7851 9 6799 C 19 6015 19 5350 10 3645 C 3 2457 0 1436 3 1375 C 29 844 276 431 713 183 C 834 115 1016 52 1157 30 C 1230 19 8995 -3 10665 3 C 11634 6 11596 4 11815 65 C 11926 96 12142 202 12235 272 C 12396 392 12539 560 12633 740 C 12706 880 12744 996 12775 1173 L 12800 1320 L 12798 4672 L 12795 8025 L 12762 8135 C 12723 8267 12620 8479 12548 8575 C 12481 8665 12345 8801 12255 8868 C 12164 8936 11948 9043 11839 9074 C 11791 9088 11691 9108 11617 9119 L 11482 9140 L 6388 9139 C 3355 9138 1275 9134 1245 9128 z M 11486 8419 C 11490 8412 10498 7413 9034 5949 C 7103 4018 6564 3484 6526 3465 C 6459 3431 6390 3432 6324 3465 C 6286 3485 5706 4058 3811 5949 C 2273 7483 1350 8411 1354 8418 C 1364 8435 11476 8435 11486 8419 z M 12118 4634 L 12115 1215 L 12093 1139 C 12040 952 11942 825 11799 756 C 11757 736 11712 720 11698 720 C 11679 720 11311 1083 9952 2444 C 9005 3392 8230 4174 8230 4182 C 8230 4201 12103 8071 12112 8062 C 12117 8057 12119 6515 12118 4634 z M 2685 6130 L 4595 4220 L 2844 2469 L 1092 717 L 1034 744 C 917 798 842 883 792 1021 L 765 1095 L 762 4568 C 761 6477 763 8040 767 8040 C 772 8040 1635 7180 2685 6130 z M 5694 3129 C 6106 2714 6312 2514 6337 2504 C 6384 2484 6467 2484 6516 2505 C 6544 2516 6722 2687 7145 3110 C 7470 3435 7740 3700 7745 3700 C 7760 3700 10750 707 10750 693 C 10750 683 9873 680 6385 680 C 2902 680 2020 683 2020 692 C 2020 711 5052 3740 5071 3740 C 5080 3740 5360 3465 5694 3129 z" stroke-linecap="round" />
</g>
</svg>