<?xml version="1.0" encoding="UTF-8" standalone="no" ?>
<!DOCTYPE svg PUBLIC "-//W3C//DTD SVG 1.1//EN" "http://www.w3.org/Graphics/SVG/1.1/DTD/svg11.dtd">
<svg xmlns="http://www.w3.org/2000/svg" xmlns:xlink="http://www.w3.org/1999/xlink" version="1.1" width="500" height="500" viewBox="0 0 500 500" xml:space="preserve">
<desc>Created with Fabric.js 4.6.0</desc>
<defs>
</defs>
<g transform="matrix(0.87 0 0 0.87 104.93 63.39)" id="0MOMwVEbqipCGw5ArH-e6"  >
<path style="stroke: none; stroke-width: 1; stroke-dasharray: none; stroke-linecap: butt; stroke-dashoffset: 0; stroke-linejoin: miter; stroke-miterlimit: 4; fill: rgb(36,198,193); fill-rule: nonzero; opacity: 1;" vector-effect="non-scaling-stroke"  transform=" translate(-111.64, -63.43)" d="M 118.656 0.117 C 113.76 -0.495 109.476 1.341 107.028 4.401 C 80.712 2.565 56.232 21.538 48.276 50.914 C 37.872 88.858 72.144 128.638 110.7 126.802 C 141.912 124.96600000000001 168.228 98.65 175.572 69.274 C 183.528 31.33 154.152 3.177 118.656 0.117 z" stroke-linecap="round" />
</g>
<g transform="matrix(0.87 0 0 0.87 93.01 319.21)" id="IzIyVYbDhOS9o5QjeRs-8"  >
<path style="stroke: none; stroke-width: 1; stroke-dasharray: none; stroke-linecap: butt; stroke-dashoffset: 0; stroke-linejoin: miter; stroke-miterlimit: 4; fill: rgb(36,198,193); fill-rule: nonzero; opacity: 1;" vector-effect="non-scaling-stroke"  transform=" translate(-98, -356.89)" d="M 155.376 189.837 C 155.376 184.941 152.316 182.493 148.644 181.881 C 147.42000000000002 175.761 142.524 170.865 135.18 171.477 C 124.77600000000001 172.089 114.37200000000001 172.089 103.968 172.701 C 92.34 173.313 77.652 172.089 66.636 176.98499999999999 C 62.964 178.20899999999997 61.12799999999999 181.26899999999998 59.903999999999996 183.71699999999998 C 58.68 184.94099999999997 58.068 186.165 57.455999999999996 188.00099999999998 C 42.767999999999994 262.66499999999996 43.379999999999995 337.941 43.992 413.82899999999995 C 43.992 440.7579999999999 31.139999999999997 511.1379999999999 55.62 531.333 C 57.455999999999996 533.17 59.903999999999996 533.781 62.352 533.781 C 62.964 535.006 64.188 536.842 66.024 537.453 C 77.652 545.409 97.236 541.737 110.088 539.901 C 117.43199999999999 538.6769999999999 127.22399999999999 538.0649999999999 134.56799999999998 533.781 C 140.688 536.2289999999999 148.64399999999998 534.3929999999999 150.48 527.05 C 160.272 478.09 151.70399999999998 423.621 151.09199999999998 374.04999999999995 C 149.256 311.625 153.541 251.038 155.376 189.837 z" stroke-linecap="round" />
</g>
<g transform="matrix(0.87 0 0 0.87 314.49 321.56)" id="4zjUQNIUaqTCpWIbaK-Ht"  >
<path style="stroke: none; stroke-width: 1; stroke-dasharray: none; stroke-linecap: butt; stroke-dashoffset: 0; stroke-linejoin: miter; stroke-miterlimit: 4; fill: rgb(36,198,193); fill-rule: nonzero; opacity: 1;" vector-effect="non-scaling-stroke"  transform=" translate(-351.48, -359.57)" d="M 514.009 383.229 C 514.62 332.433 512.173 281.637 488.916 235.737 C 441.792 142.101 297.97299999999996 162.909 215.353 173.313 C 207.39700000000002 174.53699999999998 203.113 181.26899999999998 203.72500000000002 187.38899999999998 C 203.72500000000002 187.38899999999998 203.72500000000002 187.38899999999998 203.72500000000002 188.00099999999998 C 187.20100000000002 299.99699999999996 187.20100000000002 418.72499999999997 189.03700000000003 531.9449999999999 L 189.03700000000003 531.9449999999999 C 189.03700000000003 541.1249999999999 196.99300000000002 546.021 204.33700000000005 546.021 C 206.17300000000006 547.245 208.62100000000004 548.4689999999999 211.68100000000004 549.0809999999999 C 237.38500000000005 552.1419999999999 262.47700000000003 552.1419999999999 288.18100000000004 555.2009999999999 C 296.13700000000006 556.4259999999999 301.64500000000004 549.6929999999999 302.869 542.9619999999999 C 308.37800000000004 541.1249999999999 313.273 536.2299999999999 311.437 529.4969999999998 C 299.809 486.0459999999998 299.809 443.2049999999998 302.869 398.5289999999999 C 305.317 366.0929999999999 315.72200000000004 329.3729999999999 312.05 296.9369999999999 C 333.47 292.0409999999999 351.829 276.1289999999999 369.577 299.3849999999999 C 387.937 323.2529999999999 392.222 359.3609999999999 395.893 388.1249999999999 C 399.565 416.2759999999999 400.789 445.0409999999999 401.40099999999995 473.8049999999999 C 402.013 490.9409999999999 396.50499999999994 515.4209999999999 406.90899999999993 530.1089999999999 C 409.3569999999999 533.781 413.02899999999994 535.0049999999999 416.0899999999999 535.617 C 416.7009999999999 535.617 417.3139999999999 536.2289999999999 417.92599999999993 536.2289999999999 C 441.7939999999999 541.737 471.16999999999996 547.2449999999999 495.6499999999999 542.9609999999999 C 502.9939999999999 541.7359999999999 506.6669999999999 535.0049999999999 506.6669999999999 528.2729999999999 C 518.904 484.821 513.396 427.293 514.009 383.229 z M 433.225 507.466 C 436.89700000000005 509.302 440.569 509.913 444.24100000000004 508.69 C 447.91300000000007 509.302 451.58600000000007 508.69 455.25800000000004 506.854 C 455.869 508.078 456.482 509.30199999999996 457.70500000000004 511.138 C 449.13800000000003 511.138 441.182 511.74899999999997 432.61300000000006 511.74899999999997 C 433.225 509.913 433.225 508.689 433.225 507.466 z" stroke-linecap="round" />
</g>
<g transform="matrix(1 0 0 1 397 459)" id="MU_OdPccvnBmK70_dbZYu"  >
<path style="stroke: rgb(139,44,181); stroke-width: 0; stroke-dasharray: none; stroke-linecap: butt; stroke-dashoffset: 0; stroke-linejoin: miter; stroke-miterlimit: 4; fill: rgb(36,198,193); fill-rule: nonzero; opacity: 1;" vector-effect="non-scaling-stroke"  transform=" translate(-19, -19)" d="M 19 0 C 29.488 0 38 8.512 38 19 C 38 29.488 29.488 38 19 38 C 8.512 38 0 29.488 0 19 C 0 8.512 8.512 0 19 0 z" stroke-linecap="round" />
</g>
</svg>